<svg width="20" height="20" viewBox="0 0 100 100" fill="none" xmlns="http://www.w3.org/2000/svg">
<path d="M49 25.625C49.0914 25.4376 49.2336 25.2796 49.4104 25.1691C49.5872 25.0586 49.7915 25 50 25C50.2085 25 50.4128 25.0586 50.5896 25.1691C50.7664 25.2796 50.9086 25.4376 51 25.625L54.9625 33.6563C55.0418 33.8187 55.1596 33.9594 55.3055 34.0661C55.4514 34.1728 55.6212 34.2424 55.8 34.2687L64.675 35.5562C65.5813 35.6875 65.95 36.8063 65.2875 37.45L58.875 43.7062C58.7456 43.8326 58.649 43.9885 58.5935 44.1606C58.5379 44.3326 58.5252 44.5156 58.5563 44.6937L60.0688 53.5312C60.1027 53.7353 60.0791 53.9448 60.0006 54.1362C59.9221 54.3276 59.7918 54.4933 59.6243 54.6147C59.4567 54.7361 59.2587 54.8084 59.0524 54.8235C58.8461 54.8385 58.6396 54.7958 58.4563 54.7L50.5188 50.525C50.3596 50.4418 50.1827 50.3983 50.0031 50.3983C49.8236 50.3983 49.6466 50.4418 49.4875 50.525L41.55 54.7C41.3668 54.7941 41.1612 54.8355 40.9559 54.8196C40.7506 54.8037 40.5537 54.7311 40.3872 54.61C40.2207 54.4888 40.0911 54.3238 40.0128 54.1334C39.9345 53.9429 39.9106 53.7345 39.9438 53.5312L41.4563 44.6937C41.4882 44.5161 41.4764 44.3335 41.4219 44.1614C41.3675 43.9894 41.272 43.8332 41.1438 43.7062L34.7063 37.45C34.5588 37.3052 34.4546 37.1222 34.4053 36.9216C34.356 36.7209 34.3636 36.5104 34.4272 36.3138C34.4907 36.1172 34.6079 35.9422 34.7653 35.8084C34.9228 35.6745 35.1145 35.5873 35.3188 35.5562L44.1938 34.2687C44.3726 34.2424 44.5424 34.1728 44.6883 34.0661C44.8342 33.9594 44.9519 33.8187 45.0313 33.6563L49 25.625Z" fill="#13F30E"/>
<path d="M82.9207 99.0587L82.9014 99.0459L82.881 99.0349L50.2372 81.4411L50 81.3133L49.7628 81.4411L17.119 99.0349L17.0986 99.0459L17.0792 99.0587C16.684 99.3218 16.2247 99.4727 15.7504 99.4954C15.2761 99.5181 14.8046 99.4117 14.386 99.1876C13.9674 98.9635 13.6174 98.63 13.3733 98.2227C13.1293 97.8155 13.0003 97.3497 13 96.875C13 96.8749 13 96.8748 13 96.8747L13 12.5C13 9.3174 14.2643 6.26516 16.5147 4.01472C18.7652 1.76428 21.8174 0.5 25 0.5H75C78.1826 0.5 81.2348 1.76428 83.4853 4.01472C85.7357 6.26516 87 9.3174 87 12.5V96.8747C86.9998 97.3496 86.8707 97.8154 86.6267 98.2227C86.3826 98.63 86.0326 98.9635 85.614 99.1876C85.1954 99.4117 84.7239 99.5181 84.2496 99.4954C83.7753 99.4727 83.316 99.3218 82.9207 99.0587ZM18.25 91.0375V91.8651L18.9826 91.4801L48.5013 75.9676L48.5242 75.9556L48.5457 75.9413C48.9766 75.6546 49.4825 75.5016 50 75.5016C50.5175 75.5016 51.0234 75.6546 51.4543 75.9413L51.4758 75.9556L51.4987 75.9676L81.0174 91.4801L81.75 91.8651V91.0375V12.5C81.75 10.7098 81.0388 8.9929 79.773 7.72703C78.5071 6.46116 76.7902 5.75 75 5.75H25C23.2098 5.75 21.4929 6.46116 20.227 7.72703C18.9612 8.9929 18.25 10.7098 18.25 12.5V91.0375Z" fill="#10F342" stroke="#3CF80D"/>
</svg>
