<svg width="25" height="25" viewBox="0 0 76 100" fill="none" xmlns="http://www.w3.org/2000/svg">
<path fill-rule="evenodd" clip-rule="evenodd" d="M0.500001 96.875V12.5C0.500001 9.18479 1.81696 6.00537 4.16117 3.66117C6.50537 1.31696 9.6848 0 13 0L63 0C66.3152 0 69.4946 1.31696 71.8388 3.66117C74.183 6.00537 75.5 9.18479 75.5 12.5V96.875C75.5004 97.4177 75.3595 97.9511 75.0911 98.4228C74.8227 98.8944 74.4361 99.2881 73.9694 99.5649C73.5027 99.8418 72.9719 99.9924 72.4293 100.002C71.8868 100.011 71.3511 99.8792 70.875 99.6188L38 81.6813L5.125 99.6188C4.64894 99.8792 4.11324 100.011 3.57066 100.002C3.02807 99.9924 2.49729 99.8418 2.03057 99.5649C1.56385 99.2881 1.17728 98.8944 0.908904 98.4228C0.640528 97.9511 0.499604 97.4177 0.500001 96.875ZM55.8375 36.5875C56.4243 36.0007 56.7539 35.2049 56.7539 34.375C56.7539 33.5452 56.4243 32.7493 55.8375 32.1625C55.2507 31.5757 54.4548 31.2461 53.625 31.2461C52.7952 31.2461 51.9993 31.5757 51.4125 32.1625L34.875 48.7063L27.7125 41.5375C27.422 41.247 27.077 41.0165 26.6974 40.8592C26.3178 40.702 25.9109 40.6211 25.5 40.6211C25.0891 40.6211 24.6822 40.702 24.3026 40.8592C23.923 41.0165 23.5781 41.247 23.2875 41.5375C22.997 41.8281 22.7665 42.173 22.6092 42.5526C22.452 42.9322 22.3711 43.3391 22.3711 43.75C22.3711 44.1609 22.452 44.5678 22.6092 44.9474C22.7665 45.327 22.997 45.672 23.2875 45.9625L32.6625 55.3375C32.9528 55.6285 33.2976 55.8594 33.6773 56.017C34.0569 56.1745 34.464 56.2556 34.875 56.2556C35.286 56.2556 35.6931 56.1745 36.0727 56.017C36.4524 55.8594 36.7972 55.6285 37.0875 55.3375L55.8375 36.5875Z" fill="#04CF19"/>
</svg>
